<?xml version="1.0" encoding="UTF-8"?>
<svg id="a" xmlns="http://www.w3.org/2000/svg" version="1.1" viewBox="0 0 322 248">
  <!-- Generator: Adobe Illustrator 29.5.0, SVG Export Plug-In . SVG Version: 2.1.0 Build 137)  -->
  <defs>
    <style>
      .st0 {
        fill: #fff;
      }
    </style>
  </defs>
  <path class="st0" d="M58.3,145c-11.9,0-18.3-6.9-18.3-15.4s6.4-15.3,18.3-15.3h5.6v-3.8h-5.6c-14.2,0-22.3,8.5-22.3,19.1s8.1,19.2,22.3,19.2h72.3v-3.8H58.3ZM65.8,116.3v3.8h11.3l4-3.8h-15.3ZM58.3,139.2c-8.7,0-12.3-4.3-12.3-9.6s3.6-9.6,12.3-9.6h5.6v-3.8h-5.6c-10.8,0-16.3,6-16.3,13.4s5.5,13.3,16.3,13.3h72.3v-3.8H58.3ZM89.8,110.5l-27.8,26.8h5.7l27.8-26.8h-5.7ZM65.8,110.5v3.8h17.2l4-3.8h-21.2ZM98.3,110.5l-27.8,26.8h5.7l27.8-26.8h-5.7ZM124.1,110.5l-27.8,26.8h5.6l25.1-24.1-2.8-2.7h0ZM100.7,116.3l-4,3.8h14.5l4-3.8h-14.5ZM128.3,114.6l-23.6,22.8h5.7l20.7-20-2.8-2.7h0ZM106.7,110.5l-4,3.8h14.5l4-3.8h-14.5Z"/>
  <g>
    <path class="st0" d="M152.5,116.7c2.1,0,3.6.4,4.8.9l1.5-6.4c-2.1-1-4.1-1.2-6.3-1.2-7.8,0-13.9,5.6-13.9,12.7s6,12.7,13.9,12.7,4.2-.3,6.3-1.4l-1.5-6.4c-1.4.9-3,1.1-4.8,1.1-3.4,0-6.2-2.4-6.2-6s2.7-6,6.2-6h0Z"/>
    <path class="st0" d="M172.7,110.1c-8.1,0-13.9,5.6-13.9,12.7s5.8,12.7,13.9,12.7,13.9-5.6,13.9-12.7-5.8-12.7-13.9-12.7ZM172.7,128.9c-3.4,0-5.6-2.4-5.6-6s2.3-6,5.6-6,5.6,2.4,5.6,6-2.3,6-5.6,6Z"/>
    <path class="st0" d="M197.5,113.3h-.3v-2.8h-8.2v24.5h8.2v-15.5c1.7-1.1,3.8-1.8,6.2-1.8h1.2v-7.7h-.7c-2.6,0-4.9,1.4-6.4,3.3Z"/>
    <path class="st0" d="M223.4,123.7c0,3.6-1.8,5.1-4.4,5.1s-4.4-1.5-4.4-5.1v-13.2h-8.2v13.2c0,7.2,5.4,11.8,12.6,11.8s12.6-4.7,12.6-11.8v-13.2h-8.2v13.2h0Z"/>
    <path class="st0" d="M263.2,128.1l10.8-13.5v-4.1h-40.3v6.7h10.1v.2c.1,0-10.6,13.5-10.6,13.5v4.1h41.3v-6.7h-11.2v-.2h-.1,0ZM244.1,128.4v-.2c-.1,0,8.7-11,8.7-11h10.1v.2c.1,0-8.5,10.9-8.5,10.9h-10.3,0Z"/>
    <rect class="st0" x="277.8" y="110.6" width="8.2" height="24.5"/>
  </g>
  <g>
    <path class="st0" d="M144.8,141.7v7.2h-1.8v-7.2h-2.4v-1.4h6.5v1.4h-2.3Z"/>
    <path class="st0" d="M150.4,140.3h2.8c2.2,0,3.4,1.2,3.4,2.6s-.5,1.8-1.5,2.3l2,3.6h-2l-1.8-3.3h-1.2v3.3h-1.8v-8.6h.1ZM152.1,141.7v2.4h1.1c1.1,0,1.6-.4,1.6-1.2s-.5-1.2-1.6-1.2h-1.1Z"/>
    <path class="st0" d="M165.6,146.9h-3.1l-.7,1.9h-1.9l3.2-8.6h1.7l3.2,8.6h-1.9l-.7-1.9h.2ZM163,145.6h2.1l-.8-2.4-.2-.9h0l-.2.9-.8,2.4h-.1Z"/>
    <path class="st0" d="M173.6,143.9l-.5-.8h0v5.8h-1.8v-8.6h1.6l3.7,5,.5.9h0v-5.9h1.8v8.6h-1.6l-3.7-4.9h0Z"/>
    <path class="st0" d="M183.1,147c.7.2,1.3.4,2.1.4s1.3-.3,1.3-1-.4-.9-1.5-1.3c-1.3-.5-2.3-1.2-2.3-2.5s1.5-2.5,3.1-2.5,1.6.2,2.4.5l-.3,1.4c-.7-.2-1.2-.4-2.1-.4s-1.2.3-1.2.9.4.9,1.5,1.2c1.4.5,2.3,1.3,2.3,2.4,0,1.8-1.5,2.6-3.2,2.6s-1.6-.2-2.4-.5l.3-1.4h0v.2Z"/>
    <path class="st0" d="M192.1,140.3h3.2c2.2,0,3.4,1.2,3.4,2.8s-1.2,2.8-3.4,2.8h-1.4v3h-1.8v-8.6ZM193.9,141.7v2.6h1.4c1.1,0,1.6-.5,1.6-1.3s-.5-1.3-1.6-1.3h-1.4Z"/>
    <path class="st0" d="M206.2,140.1c2.4,0,4.4,1.9,4.4,4.4s-1.9,4.4-4.4,4.4-4.4-1.9-4.4-4.4,1.9-4.4,4.4-4.4ZM206.2,147.5c1.6,0,2.6-1.2,2.6-3s-1-3-2.6-3-2.6,1.3-2.6,3,1,3,2.6,3Z"/>
    <path class="st0" d="M214.2,140.3h2.8c2.2,0,3.4,1.2,3.4,2.6s-.5,1.8-1.5,2.3l2,3.6h-2l-1.8-3.3h-1.2v3.3h-1.8v-8.6h.1ZM216,141.7v2.4h1.1c1.1,0,1.6-.4,1.6-1.2s-.5-1.2-1.6-1.2h-1.1Z"/>
    <path class="st0" d="M227.7,141.7v7.2h-1.8v-7.2h-2.4v-1.4h6.5v1.4h-2.3Z"/>
    <path class="st0" d="M233.2,148.9v-8.6h5.4v1.4h-3.6v2h3.5v1.4h-3.5v2.2h3.6v1.4h-5.4v.2Z"/>
    <path class="st0" d="M242.4,147c.7.2,1.3.4,2.1.4s1.3-.3,1.3-1-.4-.9-1.5-1.3c-1.3-.5-2.3-1.2-2.3-2.5s1.5-2.5,3.1-2.5,1.6.2,2.4.5l-.3,1.4c-.7-.2-1.2-.4-2.1-.4s-1.2.3-1.2.9.4.9,1.5,1.2c1.4.5,2.3,1.3,2.3,2.4,0,1.8-1.5,2.6-3.2,2.6s-1.6-.2-2.4-.5l.3-1.4h0v.2Z"/>
  </g>
</svg>