<?xml version="1.0" encoding="UTF-8"?>
<svg id="a" xmlns="http://www.w3.org/2000/svg" version="1.1" viewBox="0 0 322 248">
  <!-- Generator: Adobe Illustrator 29.5.0, SVG Export Plug-In . SVG Version: 2.1.0 Build 137)  -->
  <defs>
    <style>
      .st0 {
        fill: #fff;
      }
    </style>
  </defs>
  <g>
    <path class="st0" d="M133,134.2c-1.4,1.5-3.7,2.8-7,2.8s-5.6-1.3-6.9-2.8c-2-2.1-2.5-4.6-2.5-8.7s.5-6.6,2.5-8.7c1.4-1.5,3.6-2.8,6.9-2.8s5.6,1.3,7,2.8c2,2.1,2.5,4.6,2.5,8.7.1,4-.4,6.6-2.5,8.7ZM128.7,120c-.6-.6-1.5-1-2.6-1s-1.9.3-2.6,1c-1.2,1.2-1.3,3.1-1.3,5.4s0,4.3,1.3,5.5c.6.6,1.5,1,2.6,1s2-.3,2.6-1c1.2-1.2,1.3-3.1,1.3-5.5s-.2-4.2-1.3-5.4Z"/>
    <path class="st0" d="M153.8,136.7v-2.1c-1.5,1.5-3.5,2.3-5.6,2.3s-4-.7-5.3-2-2.3-3.9-2.3-6.4v-14.3h5.6v13.6c0,3.1,1.9,4.1,3.7,4.1s3.7-1,3.7-4.1v-13.6h5.6v22.4h-5.4Z"/>
    <path class="st0" d="M177.7,120.4c-.9-.9-1.6-1.3-3-1.3s-3.6,1.3-3.6,4.1v13.5h-5.6v-22.4h5.5v2.2c1.1-1.3,3.2-2.4,5.6-2.4s3.7.6,5.3,2.1l-4.2,4.2h0Z"/>
    <path class="st0" d="M199.3,134.2c-1.4,1.5-3.7,2.8-7,2.8s-5.6-1.3-6.9-2.8c-2-2.1-2.5-4.6-2.5-8.7s.5-6.6,2.5-8.7c1.4-1.5,3.6-2.8,6.9-2.8s5.6,1.3,7,2.8c2,2.1,2.5,4.6,2.5,8.7s-.5,6.6-2.5,8.7ZM195,120c-.6-.6-1.5-1-2.6-1s-1.9.3-2.6,1c-1.2,1.2-1.3,3.1-1.3,5.4s.1,4.3,1.3,5.5,1.5,1,2.6,1,2-.3,2.6-1c1.2-1.2,1.3-3.1,1.3-5.5-.1-2.3-.2-4.2-1.3-5.4Z"/>
  </g>
  <g>
    <path class="st0" d="M215.6,136.9c-3.5,0-6.7-.4-9.6-3.2l3.7-3.7c1.9,1.9,4.3,2.1,6,2.1s4-.6,4-2.3-.6-1.9-2.4-2.1l-3.5-.3c-4-.4-6.5-2.2-6.5-6.3s4.1-7.1,8.6-7.1,6.4.6,8.6,2.6l-3.4,3.5c-1.3-1.2-3.3-1.5-5.2-1.5s-3.2,1-3.2,2.2.3,1.8,2.3,1.9l3.5.3c4.4.4,6.7,2.8,6.7,6.6-.1,5-4.3,7.3-9.6,7.3h0Z"/>
    <path class="st0" d="M245.3,134.2c-1.4,1.5-3.7,2.8-7,2.8s-5.6-1.3-6.9-2.8c-2-2.1-2.5-4.6-2.5-8.7s.5-6.6,2.5-8.7c1.4-1.5,3.6-2.8,6.9-2.8s5.6,1.3,7,2.8c2,2.1,2.5,4.6,2.5,8.7s-.5,6.6-2.5,8.7ZM241,120c-.6-.6-1.5-1-2.6-1s-1.9.3-2.6,1c-1.2,1.2-1.3,3.1-1.3,5.4s.1,4.3,1.3,5.5,1.5,1,2.6,1,2-.3,2.6-1c1.2-1.2,1.3-3.1,1.3-5.5-.1-2.3-.2-4.2-1.3-5.4Z"/>
    <path class="st0" d="M252.2,145.1h-3.2v-4.7h2.2c1.4,0,2-.7,2-2v-24.1h5.6v24.4c0,3.1-2,6.4-6.6,6.4h0ZM253.1,110.4v-4.6h5.7v4.6h-5.7Z"/>
    <path class="st0" d="M276.5,136.7v-1.9c-1.5,1.5-2.9,2.2-5.5,2.2s-4.4-.6-5.7-2c-1.2-1.2-1.9-3.1-1.9-5,0-3.6,2.5-6.5,7.7-6.5h5.3v-1.1c0-2.5-1.2-3.5-4.2-3.5s-3.1.5-4.3,1.9l-3.6-3.5c2.2-2.4,4.3-3.1,8.1-3.1,6.3,0,9.6,2.7,9.6,7.9v14.8h-5.5v-.2h0ZM276.4,127.2h-4.4c-2,0-3.1.9-3.1,2.5s1,2.6,3.2,2.6,2.5-.1,3.5-1.1.8-1.5.8-2.8v-1.2Z"/>
  </g>
  <path class="st0" d="M78.2,133.2q0,0,0,0l-13.7-8.2c-8.5-5-11.7-9.8-11.7-17.3s2.9-11.3,7.8-14.2c-13.2,4.9-22.6,17.6-22.6,32.4s15.5,34.6,34.6,34.6,1.9,0,2.8-.1c-6.7,0-13.7-1.8-18.1-4.9h0v-1.3c-.4-7.8-9.2-14.3-9.9-15.5-7.4-7.5-4.1-20.3-4.1-20.3,2,3.8,5.2,5.8,5.2,5.8,12.9,5.5,11.7,15.1,11.5,16.5.4-1.7,2.9-4.5,4.3-5.1,1.4-.7,4.6-3.1,4.6-3.1.6,9.2-5.3,11.8-5.3,11.8-1.6,1.6-2.5,3.2-2.8,4.7,0-.8-.2-1.6-.4-2.5.7-2.4,2.7-7.6,6.2-9.2-3.7.8-5.7,6.5-6.3,8.5-1.3-5.5-4.5-12-12.2-15.1,0,0,9.1,6.1,10,17,3.5,5.9,9,8.5,16.7,8.5s13.1-3.6,13.1-10.2c-.2-5.3-3.4-8.9-9.8-12.8h0Z"/>
  <path class="st0" d="M90.6,96.4c2,1.8,3.2,3.9,3.2,6.3v10.7h-1.8c-2.2-13.4-8.6-18.8-19.9-18.8s-11.6,3.9-11.6,10.1,3.8,8.8,11.1,13.1l5.2,3.1c.4.2.8.5,1.4.9l5.7,3.4c8.5,5,12.4,9.1,12.4,16.6s-1.9,10.2-5.5,13.4c9.8-6.1,16.2-17,16.2-29.3.2-12.5-6.4-23.4-16.4-29.5h0Z"/>
</svg>