<?xml version="1.0" encoding="UTF-8"?>
<svg id="a" xmlns="http://www.w3.org/2000/svg" version="1.1" viewBox="0 0 322 248">
  <!-- Generator: Adobe Illustrator 29.5.0, SVG Export Plug-In . SVG Version: 2.1.0 Build 137)  -->
  <defs>
    <style>
      .st0 {
        fill: #fff;
      }
    </style>
  </defs>
  <g>
    <path class="st0" d="M101.8,108.1h6.5l7.5,18.1,7-18.1h6.5l-10.5,26.7h-5.8s-11.2-26.7-11.2-26.7Z"/>
    <path class="st0" d="M147.4,108.1h6.1v14.8c0,1,.2,1.7.7,2.6s1,1.4,1.6,1.9c.7.5,1.4,1,2.4,1.2,1,.3,1.9.5,3,.5h3v5.8h-3.1c-1.9,0-3.5-.3-5.1-1s-3-1.4-4.4-2.6c-1-1-2.3-2.3-3-3.7-.7-1.4-1-3-1-4.5l-.2-15h0Z"/>
    <path class="st0" d="M166.2,134.8v-26.7h19.4v5.8h-13.4v4.9h11.2v5.8h-11.2v4.7h13.4v5.8l-19.4-.2h0Z"/>
    <path class="st0" d="M199,108.1h10.6c1.4,0,3,.3,4.2.9,1.2.7,2.4,1.2,3.1,2.3,1,1,1.6,1.9,2.1,3,.5,1,.9,2.4.9,3.5s-.2,2.1-.7,3c-.5,1-1,1.9-1.6,2.8-.7.9-1.4,1.4-2.6,2.1-1,.7-2.1,1-3.1,1.2.5.7,1,1,1.6,1.2.7.3,1,.5,1.7.7s1.2.3,1.9.3h3v5.6h-2.4c-1.2,0-2.6-.2-3.8-.5s-2.4-.9-3.5-1.2c-1-.7-2.1-1.2-3-2.1s-1.6-1.6-2.4-2.8v6.6h-6.1l.2-26.5h0ZM209.5,121.4c1.2,0,2.3-.3,3-1,.9-.7,1-1.4,1-2.6s-.2-1-.3-1.4c-.3-.5-.5-1-1-1.2-.5-.3-.9-.7-1.2-.9-.5-.3-1-.3-1.6-.3h-4.7v7.7h4.7v-.2h.2,0Z"/>
    <path class="st0" d="M228.3,134.8h-5.9v-26.7h5.9v26.7Z"/>
    <path class="st0" d="M244.9,107.6c4.2,0,6.8,1.2,9.6,3.3l-2.4,4.5c-1.9-1.4-4.2-2.6-7-2.6-5.4,0-8.7,3.8-8.7,8.5s3.1,8.5,8.7,8.5,5.1-1,7-2.6l2.4,4.5c-2.8,2.1-5.4,3.3-9.6,3.3-8.9,0-14.5-6.5-14.5-13.8s5.6-13.8,14.5-13.8v.2Z"/>
    <path class="st0" d="M267.4,107.6c7.7,0,13.8,6.3,13.8,13.8s-6.3,13.8-13.8,13.8-14-6.3-14-13.8,6.3-13.8,14-13.8ZM267.4,129.7c4.4,0,8-3.3,8-8.4s-3.5-8.4-8-8.4-8,3.3-8,8.4,3.5,8.4,8,8.4Z"/>
    <path class="st0" d="M132.5,108.1h5.9l10.5,26.7h-6.5l-7.2-18-7.5,18.1h-6.6l11.3-26.9h.1Z"/>
  </g>
  <g>
    <path class="st0" d="M100.4,154.7l4.7-11.9h2.6l4.7,11.9h-2.8l-.9-2.3h-4.7l-.9,2.3h-2.8.1ZM104.8,150.3h3.1l-1.6-4.9-1.6,4.9h0Z"/>
    <path class="st0" d="M122.6,142.6c1.7,0,3,.7,4.4,1.4l-1.2,1.9c-.7-.3-1.6-1-3-1-3,0-3.8,2.1-3.8,3.8s1.4,3.7,3.7,3.7,1.6-.2,2.3-.5v-1.6h-3v-2.1h5.4v4.9c-1.7,1.6-3.5,1.7-4.7,1.7-3.7,0-6.3-2.8-6.3-6.1s2.3-6.1,6.3-6.1h-.1Z"/>
    <path class="st0" d="M139.8,150.3c.3,1.2.9,2.3,2.1,2.3s1-.2,1-.5l1,1.7c-.9.7-1.4,1-2.8,1-3,0-3.7-3.1-3.8-4.5h-1.6v4.2h-2.6v-11.9h5.2c2.4,0,3.8,1.7,3.8,4s-.9,3.1-2.4,3.7h.1ZM138.1,148.4c1,0,1.4-.7,1.4-1.6s-.7-1.6-1.4-1.6h-2.4v3.3l2.4-.2h0Z"/>
    <path class="st0" d="M154.2,142.6c3.3,0,6.3,2.8,6.3,6.1s-2.8,6.1-6.3,6.1-6.3-2.8-6.3-6.1c.2-3.3,3-6.1,6.3-6.1ZM154.2,152.6c1.9,0,3.5-1.4,3.5-3.7s-1.6-3.7-3.5-3.7-3.5,1.4-3.5,3.7,1.6,3.7,3.5,3.7Z"/>
    <path class="st0" d="M168.6,147.5v7.2h-2.6v-11.9h2.1l5.1,7v-7h2.6v11.9h-2.1l-5.1-7.2Z"/>
    <path class="st0" d="M182.6,154.7v-11.9h7.9v2.1h-5.2v3h4.7v2.1h-4.7v2.8h5.2v2.1c0-.2-7.9-.2-7.9-.2h0Z"/>
    <path class="st0" d="M201.8,142.6c1.7,0,3,.7,4.4,1.4l-1.2,1.9c-.7-.5-1.6-1-3-1-3,0-3.8,2.1-3.8,3.8s1.4,3.7,3.7,3.7,1.6-.2,2.3-.5v-1.6h-3v-2.1h5.4v4.9c-1.7,1.6-3.5,1.7-4.7,1.7-3.7,0-6.3-2.8-6.3-6.1s2.4-6.1,6.3-6.1h0Z"/>
    <path class="st0" d="M217.8,142.6c3.3,0,6.3,2.8,6.3,6.1s-2.8,6.1-6.3,6.1-6.3-2.8-6.3-6.1c.2-3.3,3-6.1,6.3-6.1ZM217.8,152.6c1.9,0,3.5-1.4,3.5-3.7s-1.6-3.7-3.5-3.7-3.5,1.4-3.5,3.7,1.6,3.7,3.5,3.7ZM220.6,139.5l-2.4,2.6h-1.7l1.4-2.6h2.8-.1Z"/>
    <path class="st0" d="M235.6,142.6c1.9,0,3,.7,4.4,1.4l-1,2.1c-.9-.7-1.9-1-3.1-1-2.4,0-3.8,1.6-3.8,3.8s1.4,3.8,3.8,3.8,2.3-.5,3.1-1l1,2.1c-1,1-2.4,1.4-4.4,1.4-4,0-6.6-3-6.6-6.1s2.6-6.5,6.6-6.5Z"/>
    <path class="st0" d="M247.9,154.7h-2.6v-11.9h2.6v11.9Z"/>
    <path class="st0" d="M260.1,142.6c3.3,0,6.3,2.8,6.3,6.1s-2.8,6.1-6.3,6.1-6.3-2.8-6.3-6.1,2.8-6.1,6.3-6.1ZM260.1,152.6c1.9,0,3.5-1.4,3.5-3.7s-1.6-3.7-3.5-3.7-3.5,1.4-3.5,3.7c-.2,2.1,1.4,3.7,3.5,3.7Z"/>
    <path class="st0" d="M273.3,151c.3,1,1,1.6,2.3,1.6s1.7-.3,1.7-1.2-.3-1-1.2-1.2l-1.2-.5c-2.6-1-3-2.6-3-3.5,0-2.3,1.6-3.3,4-3.3s3.1,1,4,2.6l-2.3,1c-.5-1-1.2-1.2-1.7-1.2-.9,0-1.4.3-1.4,1s.2.9,1.2,1.2l1.2.5c2.8.9,3,2.4,3.1,3.5,0,2.6-2.3,3.5-4.4,3.5s-4.4-1.2-4.7-3.5l2.3-.5h.1Z"/>
  </g>
  <g>
    <path class="st0" d="M59.6,107.7c.5,0,.9,0,1,.5,1.6,2.8,3.1,5.2,4.9,8l6.1,9.9c.2.3.7.3,1,0h0c3.5-5.9,7-11.9,10.6-17.6.3-.5.7-.9,1.2-.9h7c.6,0,.9,0,.9.2-6.6,10.8-13.1,21.8-19.7,32.8-.2.3-.7.3-1,0-1.2-2.3-2.8-4.5-4-6.6-3.7-6.1-7.2-12.2-10.8-18.3-.3-.2-.5-.5-1-.5h-2.6c-.5,0-.7.5-.5.9h0c2.4,4,4.9,8,7,11.9,3.1,5.2,6.5,10.6,9.6,16.1.2.3.5.7.2,1-1.2,2.1-2.4,4-3.7,6.3-.2.3-.7.3-1,0-8.7-14.5-17.4-28.8-26-43.3"/>
    <path class="st0" d="M71.1,119.4c-2.3-3.5-4.4-7.2-6.5-10.8,0-.3.2-.9.5-.9h13.3c.5,0,.7.5.5.9-2.3,3.8-4.5,7.5-6.8,11.2-.2.3-.7.3-.9,0,0-.2-.2-.3-.2-.3h0Z"/>
  </g>
</svg>